<svg xmlns="http://www.w3.org/2000/svg" viewBox="0 0 800 729.33331" fill="currentColor" aria-label="Barata Studio">
  <title>Barata Studio</title>
  <path d="m 428.0175,639.42865 c 46.4504,-0.35817 47.6667,-0.43474 47.6667,-3.00054 0,-2.5658 -1.2163,-2.64236 -47.6667,-3.00054 l -47.6667,-0.36756 48.3334,-0.31595 48.3333,-0.31595 v 4 4 l -48.3333,-0.31595 -48.3334,-0.31595 z M 102.01751,580.78518 c 3.11667,-0.28072 8.21667,-0.28072 11.33334,0 3.11666,0.28071 0.56666,0.51038 -5.66667,0.51038 -6.23333,0 -8.783331,-0.22967 -5.66667,-0.51038 z m 49.33334,0.0932 c 0.91666,-0.36989 2.41666,-0.36989 3.33333,0 0.91667,0.36988 0.16667,0.67251 -1.66667,0.67251 -1.83333,0 -2.58333,-0.30263 -1.66666,-0.67251 z m 31.99995,0 c 0.9167,-0.36989 2.4167,-0.36989 3.3334,0 0.9166,0.36988 0.1666,0.67251 -1.6667,0.67251 -1.8333,0 -2.5833,-0.30263 -1.6667,-0.67251 z m 31.2638,0.0555 c 1.5982,-0.47621 2.4222,-2.51141 2.8028,-6.92345 l 0.539,-6.24897 -0.1361,6.65467 c -0.115,5.62412 -0.5491,6.6963 -2.8028,6.92345 -1.945,0.19603 -2.0541,0.0862 -0.4029,-0.4057 z m 20.8995,-1.50575 c -1.5915,-2.02933 -1.5693,-2.13488 0.1701,-0.81015 1.1,0.83775 3.2,1.81815 4.6666,2.17867 2.5329,0.62258 2.5243,0.66323 -0.17,0.81014 -1.5602,0.0851 -3.6602,-0.89533 -4.6667,-2.17866 z m 29.5034,1.8221 c 0,-0.28118 1.4819,-0.7945 3.293,-1.14073 1.8111,-0.34622 2.9757,-0.11616 2.588,0.51123 -0.6828,1.10475 -5.881,1.66116 -5.881,0.6295 z m 32.7435,-0.69776 c -0.4109,-0.66494 0.4537,-0.89496 1.9213,-0.51116 3.1134,0.81415 3.5069,1.72015 0.7472,1.72015 -1.0567,0 -2.2575,-0.54405 -2.6685,-1.20899 z m 36.1454,0.3201 c -0.4889,-0.48889 -0.8889,-7.95601 -0.8889,-16.59361 v -15.70473 l -6.3333,-0.54253 -6.3334,-0.54252 6.6667,0.13613 6.6667,0.13614 0.3755,16.47781 c 0.3566,15.64754 0.5079,16.4432 3.0018,15.79101 1.4445,-0.37774 2.2901,-0.14275 1.8792,0.52219 -0.8743,1.41457 -3.7566,1.59783 -5.0343,0.3201 z m 35.8546,-0.3201 c -0.4109,-0.66494 0.4537,-0.89496 1.9213,-0.51116 3.1134,0.81415 3.5069,1.72015 0.7472,1.72015 -1.0567,0 -2.2575,-0.54405 -2.6685,-1.20899 z m 33.9232,0.69782 c 0,-0.28114 1.2008,-0.82518 2.6685,-1.20899 1.4677,-0.3838 2.3322,-0.15378 1.9213,0.51116 -0.7177,1.16121 -4.5898,1.74993 -4.5898,0.69783 z m 126.3333,-0.37188 c 0.9167,-0.36989 2.4167,-0.36989 3.3333,0 0.9167,0.36988 0.1667,0.67251 -1.6666,0.67251 -1.8334,0 -2.5834,-0.30263 -1.6667,-0.67251 z m 100.9176,-0.8509 c -0.3659,-0.95366 -0.4781,-9.80366 -0.2493,-19.66666 l 0.4161,-17.93273 0.2911,18.93908 0.2912,18.93908 9,0.46644 9,0.46643 -9.0419,0.26115 c -6.3872,0.18448 -9.2372,-0.24791 -9.7072,-1.47279 z m 60.0378,0.0985 c -0.3867,-1.00787 -0.5159,-9.90221 -0.2871,-19.76521 l 0.4161,-17.93273 0.2911,19 c 0.2408,15.71073 0.6311,19 2.2546,19 1.617,0 2.039,-3.35164 2.3923,-19 l 0.4289,-19 -0.059,19.31668 c -0.053,17.3227 -0.3003,19.36298 -2.3964,19.76521 -1.2855,0.24669 -2.6538,-0.37609 -3.0405,-1.38395 z m -201.2887,-2.36456 c 1.3273,-1.46667 2.7133,-2.66667 3.0799,-2.66667 0.3667,0 -0.4193,1.2 -1.7466,2.66667 -1.3273,1.46667 -2.7133,2.66667 -3.08,2.66667 -0.3666,0 0.4194,-1.2 1.7467,-2.66667 z m -150.8958,-8.66667 c 0.01,-5.13333 0.2469,-7.06995 0.5355,-4.30359 0.2886,2.76635 0.2838,6.96635 -0.011,9.33333 -0.2945,2.36698 -0.5307,0.1036 -0.5248,-5.02974 z m 318.2291,8.16326 c 0,-0.27687 1.05,-1.32687 2.3333,-2.33333 2.1148,-1.6585 2.1619,-1.61134 0.5034,0.50341 -1.7418,2.22099 -2.8367,2.9273 -2.8367,1.82992 z M 115.43418,575.5173 c 0.9625,-0.38516 2.1125,-0.3378 2.55556,0.10526 0.44305,0.44306 -0.34445,0.75819 -1.75,0.70029 -1.55326,-0.064 -1.8692,-0.37992 -0.80556,-0.80555 z m 520.84672,-14.42252 0.07,-13.33333 5.3334,-0.11401 5.3333,-0.11402 -4.9542,0.52177 -4.9542,0.52178 -0.449,12.92557 -0.4491,12.92558 z m 112.7366,13.4966 c 0,-0.27688 1.05,-1.32688 2.3333,-2.33334 2.1148,-1.65849 2.1619,-1.61133 0.5034,0.50341 -1.7418,2.221 -2.8367,2.9273 -2.8367,1.82993 z m -474.9754,-2.38786 c 0.7748,-0.77481 2.1958,-1.1464 3.1577,-0.82576 0.9986,0.33287 0.3942,0.93726 -1.4087,1.40874 -2.2178,0.57996 -2.7384,0.40644 -1.749,-0.58298 z M 160.76751,571.5173 c 0.96249,-0.38516 2.11249,-0.3378 2.55559,0.10526 0.443,0.44306 -0.3445,0.75819 -1.75,0.70029 -1.55329,-0.064 -1.86923,-0.37992 -0.80559,-0.80555 z m 127.99999,0 c 0.9625,-0.38516 2.1125,-0.3378 2.5556,0.10526 0.443,0.44306 -0.3445,0.75819 -1.75,0.70029 -1.5533,-0.064 -1.8692,-0.37992 -0.8056,-0.80555 z m 204.3553,-1.2003 c 0.064,-1.55325 0.3799,-1.86919 0.8055,-0.80555 0.3852,0.9625 0.3378,2.1125 -0.1052,2.55555 -0.4431,0.44306 -0.7582,-0.34444 -0.7003,-1.75 z m -327.1053,-4.16319 c 1.65,-0.31781 4.35,-0.31781 6,0 1.65,0.3178 0.3,0.57782 -3,0.57782 -3.3,0 -4.65,-0.26002 -3,-0.57782 z m 53.3333,0.0579 c 0.9167,-0.36988 2.4167,-0.36988 3.3334,0 0.9166,0.36988 0.1666,0.67252 -1.6667,0.67252 -1.8333,0 -2.5833,-0.30264 -1.6667,-0.67252 z m 59,0.13224 c 4.7574,-1.05005 13.3334,-1.233 13.3334,-0.2844 0,0.56938 -3.45,0.96563 -7.6667,0.88056 -4.2167,-0.0851 -6.7667,-0.35332 -5.6667,-0.59613 z m 449.5933,-3.91586 c 0.027,-2.2 0.326,-2.93858 0.6641,-1.64129 0.338,1.29729 0.3158,3.09729 -0.049,4 -0.3653,0.9027 -0.6419,-0.15871 -0.6147,-2.35871 z m -622.59325,1.04499 c 2.01666,-0.3055 5.31666,-0.3055 7.33333,0 2.01667,0.3055 0.36667,0.55545 -3.66667,0.55545 -4.03333,0 -5.68333,-0.24995 -3.66666,-0.55545 z m 131.66665,0.4516 c 0,-0.27688 1.05,-1.32687 2.3333,-2.33333 2.1148,-1.6585 2.1619,-1.61134 0.5034,0.5034 -1.7418,2.221 -2.8367,2.92731 -2.8367,1.82993 z m -115.23995,-2.01215 c -0.40187,-0.65025 0.31272,-2.00025 1.58798,-3 2.04822,-1.60574 2.12561,-1.57017 0.66355,0.30493 -0.9103,1.16748 -1.2603,2.51748 -0.77778,3 0.48253,0.48253 0.51273,0.87732 0.0671,0.87732 -0.44561,0 -1.139,-0.53201 -1.54087,-1.18225 z m 95.62135,-6.15108 c 0.01,-3.66667 0.2689,-5.00842 0.5754,-2.98167 0.3065,2.02675 0.2983,5.02675 -0.018,6.66667 -0.3165,1.63992 -0.5672,-0.0183 -0.5572,-3.685 z m 250.1152,3.66667 c -1.6585,-2.11474 -1.6113,-2.16191 0.5034,-0.50341 1.2833,1.00646 2.3333,2.05646 2.3333,2.33333 0,1.09738 -1.0949,0.39107 -2.8367,-1.82992 z m 190.942,0.22222 c 0.064,-1.55326 0.3799,-1.8692 0.8056,-0.80556 0.3851,0.9625 0.3378,2.1125 -0.1053,2.55556 -0.4431,0.44305 -0.7582,-0.34445 -0.7003,-1.75 z m -186.7347,-3.84406 c -0.8925,-1.07534 -1.4159,-2.55573 -1.1633,-3.28975 0.2527,-0.73402 1.153,0.14581 2.0006,1.95517 1.7571,3.75052 1.5034,4.15494 -0.8373,1.33458 z m -235.932,-1.48927 c 0.064,-1.55326 0.38,-1.8692 0.8056,-0.80556 0.3852,0.9625 0.3378,2.1125 -0.1053,2.55556 -0.443,0.44305 -0.7582,-0.34445 -0.7003,-1.75 z m 229.3334,-1.33334 c 0.064,-1.55326 0.3799,-1.8692 0.8055,-0.80555 0.3852,0.9625 0.3378,2.1125 -0.1052,2.55555 -0.4431,0.44306 -0.7582,-0.34444 -0.7003,-1.75 z m -126.4359,-3.22222 c 0.3792,-1.40699 2.4849,-2.04256 7.1015,-2.14355 l 6.5624,-0.14354 -5.9781,0.56876 c -3.2879,0.31282 -6.4836,1.27741 -7.1015,2.14354 -0.7767,1.08879 -0.957,0.95756 -0.5843,-0.42521 z m 387.6639,-0.50341 c 0,-0.27687 1.05,-1.32687 2.3334,-2.33333 2.1147,-1.65849 2.1619,-1.61133 0.5034,0.50341 -1.7418,2.22099 -2.8368,2.9273 -2.8368,1.82992 z m -620.30941,-1.79623 c 2.39647,-0.29675 5.99647,-0.29063 8,0.0136 2.00353,0.30424 0.0428,0.54703 -4.35721,0.53955 -4.4,-0.007 -6.03926,-0.2564 -3.64279,-0.55315 z m 114.66671,0 c 2.3964,-0.29675 5.9964,-0.29063 8,0.0136 2.0035,0.30424 0.043,0.54703 -4.3573,0.53955 -4.4,-0.007 -6.0392,-0.2564 -3.6427,-0.55315 z m 245.6427,0.4629 c 0,-0.27687 1.05,-1.32687 2.3334,-2.33333 2.1147,-1.6585 2.1619,-1.61134 0.5034,0.5034 -1.7418,2.221 -2.8368,2.92731 -2.8368,1.82993 z m 53.685,-0.45337 c 2.0268,-0.30647 5.0268,-0.29828 6.6667,0.0182 1.6399,0.31648 -0.018,0.56723 -3.685,0.55722 -3.6667,-0.01 -5.0084,-0.26895 -2.9817,-0.57542 z m 19.8973,0.0233 c 4.4121,-0.38061 6.4473,-1.20452 6.9235,-2.8028 0.4919,-1.65114 0.6017,-1.5421 0.4057,0.40294 -0.2272,2.2537 -1.2993,2.68775 -6.9235,2.80281 l -6.6546,0.13613 z m -150.2489,-4.39986 c -2.1739,-0.93414 -2.25,-1.16322 -0.412,-1.23962 1.24,-0.0515 2.6254,0.50629 3.0786,1.23962 0.9476,1.53318 0.9013,1.53318 -2.6666,0 z m -166.3178,-0.94301 c 1.6585,-0.31893 4.0585,-0.30682 5.3333,0.0269 1.2748,0.33372 -0.082,0.59466 -3.0155,0.57986 -2.9334,-0.0148 -3.9764,-0.28785 -2.3178,-0.60677 z m 60.0678,0.0322 c 0.9625,-0.38516 2.1125,-0.33779 2.5555,0.10527 0.4431,0.44305 -0.3444,0.75818 -1.75,0.70029 -1.5532,-0.064 -1.8692,-0.37992 -0.8055,-0.80556 z m 50.5833,0.0278 c 0.9167,-0.36988 2.4167,-0.36988 3.3333,0 0.9167,0.36989 0.1667,0.67252 -1.6666,0.67252 -1.8334,0 -2.5834,-0.30263 -1.6667,-0.67252 z m 8,-0.0579 c 1.65,-0.31781 4.35,-0.31781 6,0 1.65,0.3178 0.3,0.57782 -3,0.57782 -3.3,0 -4.65,-0.26002 -3,-0.57782 z m 184.6667,-0.0141 c 2.0166,-0.3055 5.3166,-0.3055 7.3333,0 2.0167,0.3055 0.3667,0.55545 -3.6667,0.55545 -4.0333,0 -5.6833,-0.24995 -3.6666,-0.55545 z m 6,-89.26137 c 0.9166,-0.36988 2.4166,-0.36988 3.3333,0 0.9167,0.36988 0.1667,0.67252 -1.6667,0.67252 -1.8333,0 -2.5833,-0.30264 -1.6666,-0.67252 z m -107.4068,-7.78362 c 0.027,-2.2 0.326,-2.93858 0.6641,-1.64129 0.3381,1.29729 0.3158,3.09729 -0.049,4 -0.3652,0.9027 -0.6418,-0.15871 -0.6147,-2.35871 z m 142.4068,-5.33334 c 1.7223,-1.83333 3.4315,-3.33333 3.7981,-3.33333 0.3667,0 -0.7425,1.5 -2.4648,3.33333 -1.7223,1.83334 -3.4315,3.33334 -3.7982,3.33334 -0.3666,0 0.7425,-1.5 2.4649,-3.33334 z m 41.4386,-18.77777 c 0.064,-1.55326 0.3799,-1.8692 0.8055,-0.80556 0.3852,0.9625 0.3378,2.1125 -0.1052,2.55556 -0.4431,0.44305 -0.7582,-0.34445 -0.7003,-1.75 z m -30.6667,-1.33334 c 0.064,-1.55326 0.3799,-1.8692 0.8056,-0.80555 0.3851,0.9625 0.3378,2.1125 -0.1053,2.55555 -0.4431,0.44306 -0.7582,-0.34444 -0.7003,-1.75 z M 404.0175,380.84234 c 1.2833,-0.33537 3.3833,-0.33537 4.6667,0 1.2833,0.33537 0.2333,0.60977 -2.3334,0.60977 -2.5666,0 -3.6166,-0.2744 -2.3333,-0.60977 z m 187.5658,-13.41423 -3.2325,-3.66667 3.6667,3.23242 c 3.4271,3.02119 4.2781,4.10092 3.2324,4.10092 -0.2388,0 -1.8888,-1.65 -3.6666,-3.66667 z m -53.4825,0.0892 c 0.9625,-0.38516 2.1125,-0.33779 2.5556,0.10527 0.4431,0.44305 -0.3444,0.75818 -1.75,0.70029 -1.5533,-0.064 -1.8692,-0.37992 -0.8056,-0.80556 z m -138.0579,-1.34652 c 1.2973,-0.33806 3.0973,-0.31583 4,0.0494 0.9027,0.36523 -0.1587,0.64182 -2.3587,0.61465 -2.2,-0.0272 -2.9386,-0.326 -1.6413,-0.66406 z m 67.3079,-0.0736 c 11.9167,-0.22098 31.4167,-0.22098 43.3334,0 11.9166,0.22098 2.1666,0.40178 -21.6667,0.40178 -23.8333,0 -33.5833,-0.1808 -21.6667,-0.40178 z m -226.024,-4.33573 c 0,-2.56666 0.2744,-3.61666 0.6098,-2.33333 0.3354,1.28333 0.3354,3.38333 0,4.66667 -0.3354,1.28333 -0.6098,0.23333 -0.6098,-2.33334 z m 0.2781,-51.99999 c 0,-20.9 0.1843,-29.45 0.4096,-19 0.2252,10.45 0.2252,27.55 0,38 -0.2253,10.45 -0.4096,1.9 -0.4096,-19 z m 338.0793,28.66664 c 2.4877,-2.56666 4.8231,-4.66666 5.1898,-4.66666 0.3666,0 -1.3688,2.1 -3.8565,4.66666 -2.4877,2.56667 -4.8231,4.66667 -5.1898,4.66667 -0.3666,0 1.3688,-2.1 3.8565,-4.66667 z m -261.5827,2.33533 c 11.9628,-0.22121 31.1628,-0.22077 42.6666,9.7e-4 11.5039,0.22173 1.7161,0.40271 -21.7506,0.40218 -23.4667,-5.3e-4 -32.8789,-0.18195 -20.916,-0.40315 z m 71.916,0.11496 c 0.9167,-0.36988 2.4167,-0.36988 3.3333,0 0.9167,0.36989 0.1667,0.67252 -1.6666,0.67252 -1.8334,0 -2.5834,-0.30263 -1.6667,-0.67252 z m 134.75,-1.36111 c 0.9625,-0.38516 2.1125,-0.33779 2.5556,0.10527 0.443,0.44305 -0.3445,0.75818 -1.75,0.70029 -1.5533,-0.064 -1.8692,-0.37992 -0.8056,-0.80556 z m 30.9167,-13.08918 c 1.7223,-1.83333 3.4315,-3.33333 3.7981,-3.33333 0.3667,0 -0.7425,1.5 -2.4648,3.33333 -1.7223,1.83334 -3.4315,3.33334 -3.7982,3.33334 -0.3666,0 0.7425,-1.5 2.4649,-3.33334 z M 437.3268,299.09478 c 0,-2.56667 0.2744,-3.61667 0.6098,-2.33333 0.3354,1.28333 0.3354,3.38333 0,4.66666 -0.3354,1.28334 -0.6098,0.23334 -0.6098,-2.33333 z m 130.7705,-3.33333 c 0.01,-4.4 0.2564,-6.03926 0.5532,-3.64279 0.2967,2.39647 0.2906,5.99647 -0.014,8 -0.3042,2.00353 -0.547,0.0428 -0.5396,-4.35721 z m -113.2065,-17 -2.54,-3 3,2.53998 c 2.8193,2.38696 3.607,3.46002 2.54,3.46002 -0.253,0 -1.603,-1.35 -3,-3 z M 241.6037,222.42812 c 6e-4,-20.53334 0.1857,-28.74704 0.4113,-18.25267 0.2255,10.49437 0.225,27.29437 0,37.33333 -0.2263,10.03897 -0.4108,1.45267 -0.4101,-19.08066 z m 282.4392,3.74267 c 1.2973,-0.33805 3.0973,-0.31582 4,0.0494 0.9027,0.36523 -0.1587,0.64182 -2.3587,0.61465 -2.2,-0.0272 -2.9386,-0.326 -1.6413,-0.66406 z m -129.9421,-1.32016 c 0.9625,-0.38516 2.1125,-0.33779 2.5556,0.10526 0.4431,0.44306 -0.3444,0.75819 -1.75,0.7003 -1.5533,-0.064 -1.8692,-0.37992 -0.8056,-0.80556 z m 71.022,-35.86696 c 0.064,-1.55326 0.3799,-1.8692 0.8055,-0.80555 0.3852,0.9625 0.3378,2.1125 -0.1052,2.55555 -0.4431,0.44306 -0.7582,-0.34444 -0.7003,-1.75 z M 241.4834,163.09479 c 0,-6.23333 0.2297,-8.78333 0.5104,-5.66666 0.2807,3.11666 0.2807,8.21666 0,11.33333 -0.2807,3.11667 -0.5104,0.56667 -0.5104,-5.66667 z m 223.6394,4.55556 c 0.064,-1.55326 0.3799,-1.8692 0.8055,-0.80556 0.3852,0.9625 0.3378,2.1125 -0.1052,2.55556 -0.4431,0.44305 -0.7582,-0.34445 -0.7003,-1.75 z m -40.2062,-17.55556 -3.2324,-3.66666 3.6666,3.23242 c 3.4271,3.02118 4.2782,4.10091 3.2325,4.10091 -0.2389,0 -1.8889,-1.65 -3.6667,-3.66667 z m 21.3625,-18.66666 -4.5949,-5 5,4.59489 c 2.75,2.52719 5,4.77719 5,5 0,1.01816 -1.1283,0.059 -5.4051,-4.59489 z m -204.862,-8.33334 c 0,-4.03332 0.2499,-5.68332 0.5554,-3.66666 0.3055,2.01666 0.3055,5.31666 0,7.33333 -0.3055,2.01667 -0.5554,0.36667 -0.5554,-3.66667 z m 155.2671,-12.88303 c 0.9166,-0.36988 2.4166,-0.36988 3.3333,0 0.9167,0.36989 0.1667,0.67252 -1.6667,0.67252 -1.8333,0 -2.5833,-0.30263 -1.6666,-0.67252 z"/>
</svg>